<svg viewBox="0 0 24 24" xmlns="http://www.w3.org/2000/svg">
  <style>
    :root {
      --icon-color: #9E9E9E;
      --light-color: #ffffff;
    }
  </style>
  <!-- Hue Signe Gradient Floor icon -->
  <!-- Body/Base shape -->
  <path fill="var(--icon-color)" d="M12.2,13V1.4c0-0.3-0.2-0.5-0.5-0.5H9.8H9.2c-0.3,0-0.5,0.2-0.5,0.5v12.5c-0.3,0.3-0.6,0.6-0.6,1v0.3v6.3
    c0,0.1,0,0.1,0,0.2c0.2,1.1,2.2,1.7,4.1,1.7s3.9-0.6,4.1-1.7c0-0.1,0-0.1,0-0.2v-6.3v-0.3C16.5,13.5,14.3,12.9,12.2,13z"/>
  <!-- Light bar -->
  <rect fill="var(--light-color)" x="10.2" y="1.9" width="1" height="12.1" rx="0.5"/>
</svg>
